<svg width="50" height="50" viewBox="0 0 50 50" fill="none" xmlns="http://www.w3.org/2000/svg">
<path d="M46.0938 34.375V32.0312C46.0938 31.824 46.0114 31.6253 45.8649 31.4788C45.7184 31.3323 45.5197 31.25 45.3125 31.25H42.3706C42.1239 30.4551 41.804 29.6848 41.415 28.949L43.4971 26.8734C43.5698 26.8009 43.6275 26.7148 43.6669 26.62C43.7063 26.5252 43.7266 26.4235 43.7267 26.3208C43.7268 26.2181 43.7066 26.1165 43.6673 26.0216C43.628 25.9267 43.5705 25.8405 43.4978 25.7679L39.0758 21.3459C38.9294 21.1994 38.7307 21.1171 38.5235 21.117C38.4208 21.1171 38.3184 21.1374 38.2236 21.1768C38.1289 21.2162 38.0428 21.2739 37.9704 21.3467L35.8948 23.4287C35.159 23.0397 34.3887 22.7198 33.5938 22.4731V19.5312C33.5938 19.324 33.5114 19.1253 33.3649 18.9788C33.2184 18.8323 33.0197 18.75 32.8125 18.75H30.4688V12.421C31.0897 12.2974 31.6712 12.0247 32.1633 11.6263C32.6554 11.228 33.0432 10.7159 33.2933 10.1343C33.5434 9.55273 33.6484 8.91903 33.5991 8.28784C33.5498 7.65666 33.3477 7.04693 33.0104 6.51121C32.673 5.97548 32.2104 5.52984 31.6625 5.21269C31.1145 4.89553 30.4977 4.71638 29.8651 4.69067C29.2325 4.66497 28.6032 4.79348 28.0313 5.06513C27.4594 5.33678 26.9622 5.74342 26.5825 6.25H11.7188V5.46875C11.7188 5.26155 11.6364 5.06284 11.4899 4.91632C11.3434 4.76981 11.1447 4.6875 10.9375 4.6875H9.375V2.34375C9.375 2.13655 9.29269 1.93784 9.14618 1.79132C8.99966 1.64481 8.80095 1.5625 8.59375 1.5625H4.6875C4.4803 1.5625 4.28159 1.64481 4.13507 1.79132C3.98856 1.93784 3.90625 2.13655 3.90625 2.34375V4.6875H2.34375C2.13655 4.6875 1.93784 4.76981 1.79132 4.91632C1.64481 5.06284 1.5625 5.26155 1.5625 5.46875V11.7188C1.5625 11.926 1.64481 12.1247 1.79132 12.2712C1.93784 12.4177 2.13655 12.5 2.34375 12.5H3.125V47.6562C3.125 47.8634 3.20731 48.0622 3.35382 48.2087C3.50034 48.3552 3.69905 48.4375 3.90625 48.4375H9.375C9.5822 48.4375 9.78091 48.3552 9.92743 48.2087C10.0739 48.0622 10.1562 47.8634 10.1562 47.6562V12.5H10.9375C11.1447 12.5 11.3434 12.4177 11.4899 12.2712C11.6364 12.1247 11.7188 11.926 11.7188 11.7188V10.9375H26.5825C27.1506 11.6984 27.9769 12.2259 28.9062 12.421V18.75H26.5625C26.3553 18.75 26.1566 18.8323 26.0101 18.9788C25.8636 19.1253 25.7812 19.324 25.7812 19.5312V22.4731C24.9864 22.7199 24.216 23.0398 23.4802 23.4287L21.4046 21.3467C21.3322 21.2739 21.2462 21.2162 21.1514 21.1768C21.0566 21.1374 20.955 21.1171 20.8523 21.1171C20.6451 21.1171 20.4457 21.1994 20.2992 21.346L15.8772 25.768C15.8046 25.8406 15.747 25.9267 15.7077 26.0216C15.6684 26.1165 15.6483 26.2182 15.6483 26.3209C15.6484 26.4235 15.6687 26.5252 15.7081 26.62C15.7475 26.7148 15.8052 26.8009 15.878 26.8734L17.96 28.949C17.571 29.6848 17.2511 30.4551 17.0044 31.25H14.0625C13.8553 31.25 13.6566 31.3323 13.5101 31.4788C13.3636 31.6253 13.2812 31.824 13.2812 32.0312V34.519C12.8256 34.6795 12.4308 34.9771 12.151 35.371C11.8712 35.7648 11.7202 36.2356 11.7188 36.7188V42.9688C11.7202 43.4519 11.8712 43.9227 12.151 44.3165C12.4308 44.7104 12.8256 45.008 13.2812 45.1685V47.6562C13.2812 47.8634 13.3636 48.0622 13.5101 48.2087C13.6566 48.3552 13.8553 48.4375 14.0625 48.4375H18.75C18.9572 48.4375 19.1559 48.3552 19.3024 48.2087C19.4489 48.0622 19.5312 47.8634 19.5312 47.6562V45.3125H40.625V47.6562C40.625 47.8634 40.7073 48.0622 40.8538 48.2087C41.0003 48.3552 41.1991 48.4375 41.4062 48.4375H46.0938C46.3009 48.4375 46.4997 48.3552 46.6462 48.2087C46.7927 48.0622 46.875 47.8634 46.875 47.6562V45.1685C47.3307 45.008 47.7255 44.7104 48.0053 44.3165C48.285 43.9227 48.436 43.4519 48.4375 42.9688V36.7188C48.4368 36.0974 48.1897 35.5016 47.7503 35.0622C47.3109 34.6228 46.7151 34.3757 46.0938 34.375ZM5.46875 3.125H7.8125V4.6875H5.46875V3.125ZM8.59375 46.875H4.6875V44.1094L8.59375 40.7612V46.875ZM4.6875 42.0513V36.0737L8.17452 39.0625L4.6875 42.0513ZM8.59375 37.3638L5.10673 34.375L8.59375 31.3862V37.3638ZM4.6875 32.6763V26.6987L8.17452 29.6875L4.6875 32.6763ZM8.59375 27.9888L5.10673 25L8.59375 22.0112V27.9888ZM4.6875 23.3013V17.3237L8.17452 20.3125L4.6875 23.3013ZM8.59375 18.6138L4.6875 15.2656V12.5H8.59375V18.6138ZM10.1562 7.03125V10.9375H3.125V6.25H10.1562V7.03125ZM25.8602 9.375H11.7188V7.8125H25.8602C25.7549 8.32801 25.7549 8.85949 25.8602 9.375ZM27.3438 8.59375C27.3438 8.1302 27.4812 7.67706 27.7387 7.29163C27.9963 6.9062 28.3623 6.6058 28.7906 6.42841C29.2189 6.25101 29.6901 6.2046 30.1447 6.29503C30.5994 6.38547 31.017 6.60869 31.3448 6.93647C31.6726 7.26425 31.8958 7.68186 31.9862 8.13651C32.0767 8.59115 32.0302 9.0624 31.8528 9.49066C31.6754 9.91893 31.375 10.285 30.9896 10.5425C30.6042 10.8 30.1511 10.9375 29.6875 10.9375C29.0661 10.9368 28.4704 10.6897 28.031 10.2503C27.5916 9.81089 27.3444 9.21514 27.3438 8.59375ZM14.8438 32.8125H17.5938C17.7667 32.8125 17.9347 32.7551 18.0715 32.6493C18.2083 32.5436 18.3062 32.3954 18.3498 32.2281C18.627 31.1684 19.049 30.1518 19.6037 29.2073C19.6913 29.058 19.7268 28.8839 19.7046 28.7124C19.6824 28.5408 19.6039 28.3814 19.4813 28.2593L17.5354 26.3195L20.8508 23.0041L22.7905 24.95C22.9128 25.0724 23.0721 25.1508 23.2436 25.1729C23.4151 25.1951 23.5892 25.1597 23.7385 25.0724C24.6831 24.5177 25.6996 24.0958 26.7593 23.8185C26.9267 23.7749 27.0748 23.6771 27.1806 23.5402C27.2863 23.4034 27.3437 23.2354 27.3438 23.0625V20.3125H32.0312V23.0625C32.0313 23.2354 32.0887 23.4034 32.1944 23.5403C32.3002 23.6771 32.4483 23.775 32.6156 23.8186C33.6754 24.0958 34.6919 24.5177 35.6365 25.0725C35.7857 25.16 35.9598 25.1955 36.1314 25.1734C36.303 25.1512 36.4624 25.0726 36.5844 24.95L38.5242 23.0041L41.8396 26.3195L39.8937 28.2593C39.7712 28.3814 39.6926 28.5407 39.6704 28.7123C39.6483 28.8839 39.6838 29.058 39.7713 29.2072C40.326 30.1518 40.748 31.1683 41.0252 32.2281C41.0688 32.3954 41.1667 32.5436 41.3035 32.6493C41.4403 32.7551 41.6083 32.8125 41.7812 32.8125H44.5312V34.375H39.0229C38.8288 32.0326 37.7611 29.8487 36.0318 28.2568C34.3025 26.6649 32.038 25.7813 29.6875 25.7813C27.337 25.7813 25.0725 26.6649 23.3432 28.2568C21.6139 29.8487 20.5462 32.0326 20.3521 34.375H14.8438V32.8125ZM37.4604 34.375H21.9146C22.1081 32.448 23.0106 30.6616 24.4469 29.3624C25.8831 28.0632 27.7508 27.3438 29.6875 27.3438C31.6242 27.3438 33.4919 28.0632 34.9281 29.3624C36.3644 30.6616 37.2669 32.448 37.4604 34.375ZM13.6094 43.5877C13.5095 43.518 13.4276 43.4255 13.3706 43.3179C13.3135 43.2102 13.2829 43.0906 13.2812 42.9688V36.7188C13.2815 36.5116 13.3639 36.3131 13.5104 36.1666C13.6568 36.0202 13.8554 35.9378 14.0625 35.9375H16.797L13.6094 43.5877ZM17.9688 46.875H14.8438V45.3125H17.9688V46.875ZM19.0105 43.75H15.2342L18.4895 35.9375H22.2658L19.0105 43.75ZM20.703 43.75L23.9582 35.9375H27.7345L24.4793 43.75H20.703ZM26.1717 43.75L29.427 35.9375H33.2033L29.948 43.75H26.1717ZM31.6405 43.75L34.8957 35.9375H39.4533L36.198 43.75H31.6405ZM41.4062 43.75H37.8905L41.1457 35.9375H44.922L41.6668 43.75H41.4062ZM45.3125 46.875H42.1875V45.3125H45.3125V46.875ZM46.875 42.9688C46.8747 43.1759 46.7923 43.3744 46.6459 43.5209C46.4994 43.6673 46.3009 43.7497 46.0938 43.75H43.3592L46.5469 36.0998C46.6468 36.1695 46.7286 36.262 46.7857 36.3696C46.8427 36.4773 46.8734 36.5969 46.875 36.7188V42.9688Z" fill="#016B38" stroke="#016B38" stroke-width="0.3"/>
<path d="M30.4688 7.8125H28.9062V9.375H30.4688V7.8125Z" fill="#016B38"/>
</svg>
