<svg width="160" height="48" viewBox="0 0 160 48" fill="none" xmlns="http://www.w3.org/2000/svg">
<path d="M19.6403 47.0116H0V47.9653H20.5856V45.0775H19.6403V47.0116Z" fill="#B08968"/>
<path d="M17.2773 20.9987H20.5857V15.8059H17.2773V20.9987ZM19.6405 16.7597V20.0449H18.2226V16.7597H19.6405Z" fill="#B08968"/>
<path d="M5.46186 25.8457H15.282V24.892H4.5166V28.0444H19.6407V29.4218H4.5166V32.5742H19.6144V33.8192H4.5166V36.9186H19.6144V38.1636H4.5166V41.4219H19.6144V42.7464H11.7373V43.7H20.5597V40.4682H5.46186V39.0908H20.5597V35.9914H5.46186V34.7464H20.5597V31.647H5.46186V30.3755H20.5859V27.1172H5.46186V25.8457Z" fill="#B08968"/>
<path d="M36.0771 47.0113V27.1437L23.5 18.137V0.150208L1.89041 21.2629L1.83789 21.3158V45.4749H2.78315V24.0443L22.5547 4.44161V47.753H23.5V26.296L35.1319 34.6139V47.9649H44.5319V47.0113H36.0771ZM22.5547 2.40187V3.09061L2.78315 22.6933V21.6867L22.5547 2.40187ZM35.1319 32.1503V33.4483L23.5 25.1304V23.8324L35.1319 32.1503ZM35.1319 29.7662V30.9847L23.5 22.6668V21.4483L35.1319 29.7662ZM35.1319 27.647V28.6006L23.5 20.2827V19.3291L35.1319 27.647Z" fill="#B08968"/>
<path d="M53.537 24.6823L52.8083 22.593H48.0911L47.4008 24.6823H44.9463L48.9732 13.0748H51.7728L55.838 24.6823H53.537ZM48.8198 20.4262H52.0413L50.3922 15.7059L48.8198 20.4262Z" fill="#455833"/>
<path d="M58.9443 17.795C59.136 17.2534 59.4812 16.8664 59.9031 16.5956C60.3633 16.3248 60.8618 16.2087 61.4371 16.2087V18.6076C60.7851 18.5302 60.2099 18.6463 59.7113 18.9945C59.2127 19.3427 58.9443 19.9231 58.9443 20.6969V24.6435H56.835V16.3634H58.9443V17.795Z" fill="#455833"/>
<path d="M66.2692 24.9143C65.042 24.9143 64.0065 24.4887 63.1628 23.6375C62.3191 22.7863 61.9355 21.7803 61.9355 20.5422C61.9355 19.3041 62.3574 18.2594 63.1628 17.4469C64.0065 16.5957 65.0036 16.17 66.2692 16.17C67.0746 16.17 67.8033 16.3635 68.4552 16.7504C69.1072 17.1373 69.6058 17.6403 69.9509 18.2981L68.1484 19.3814C67.995 19.0332 67.7266 18.7624 67.4198 18.5689C67.0746 18.3755 66.7294 18.2594 66.3076 18.2594C65.6556 18.2594 65.157 18.4528 64.7352 18.8785C64.3133 19.3041 64.1216 19.8457 64.1216 20.5035C64.1216 21.1613 64.3133 21.7029 64.7352 22.1285C65.157 22.5541 65.694 22.7476 66.3076 22.7476C66.7294 22.7476 67.113 22.6702 67.4581 22.4768C67.8033 22.2833 68.0334 22.0125 68.1868 21.6642L70.0276 22.7089C69.6825 23.3667 69.1456 23.8697 68.4936 24.2566C67.8033 24.7209 67.0746 24.9143 66.2692 24.9143Z" fill="#455833"/>
<path d="M75.6653 16.1702C76.5474 16.1702 77.3144 16.4797 77.8897 17.0988C78.465 17.7178 78.7718 18.5303 78.7718 19.6137V24.6823H76.6625V19.8459C76.6625 19.3042 76.5091 18.8786 76.2023 18.569C75.8955 18.2595 75.5119 18.1434 75.0134 18.1434C74.4765 18.1434 74.0163 18.2982 73.7094 18.6464C73.3643 18.9946 73.2109 19.4976 73.2109 20.1941V24.6823H71.1016V13.0748H73.2109V17.3309C73.7478 16.5571 74.5532 16.1702 75.6653 16.1702Z" fill="#455833"/>
<path d="M87.631 18.6463C88.6281 19.2267 89.1267 20.1166 89.1267 21.2773C89.1267 22.2446 88.7815 23.0571 88.0912 23.6762C87.4009 24.2953 86.5572 24.6048 85.5601 24.6048H80.6895V12.9973H85.2149C86.212 12.9973 87.0174 13.3068 87.7077 13.9259C88.398 14.545 88.7048 15.3188 88.7048 16.2861C88.7048 17.2921 88.3213 18.0659 87.631 18.6463ZM85.2149 15.2027H82.9522V17.7564H85.2149C85.5601 17.7564 85.8669 17.6403 86.097 17.4082C86.3271 17.176 86.4421 16.8665 86.4421 16.4796C86.4421 16.1313 86.3271 15.8218 86.097 15.551C85.8669 15.3188 85.5601 15.2027 85.2149 15.2027ZM85.5601 22.5155C85.9436 22.5155 86.2504 22.3994 86.5188 22.1285C86.7873 21.8577 86.9023 21.5482 86.9023 21.1613C86.9023 20.7743 86.7873 20.4648 86.5188 20.194C86.2504 19.9231 85.9436 19.807 85.5601 19.807H82.9522V22.5542H85.5601V22.5155Z" fill="#455833"/>
<path d="M96.8743 16.4022H98.9836V24.6822H96.8743V23.7149C96.2223 24.5274 95.3402 24.9143 94.1897 24.9143C93.0775 24.9143 92.1571 24.4887 91.3901 23.6375C90.623 22.7863 90.2012 21.7416 90.2012 20.5422C90.2012 19.3041 90.5847 18.2981 91.3901 17.4469C92.1571 16.5957 93.1159 16.17 94.1897 16.17C95.3402 16.17 96.2223 16.557 96.8743 17.3695V16.4022ZM92.9625 22.2059C93.3843 22.6315 93.9212 22.8637 94.5732 22.8637C95.2252 22.8637 95.7621 22.6315 96.2223 22.2059C96.6442 21.7803 96.8743 21.1999 96.8743 20.5422C96.8743 19.8457 96.6442 19.3041 96.2223 18.8785C95.8004 18.4528 95.2635 18.2207 94.5732 18.2207C93.9212 18.2207 93.3843 18.4528 92.9625 18.8785C92.5406 19.3041 92.3105 19.8844 92.3105 20.5422C92.3105 21.1999 92.5406 21.7803 92.9625 22.2059Z" fill="#455833"/>
<path d="M108.456 24.6823H106.001L103.01 20.9292V24.6823H100.9V13.0748H103.01V20.0393L105.848 16.3636H108.379L105.081 20.4649L108.456 24.6823Z" fill="#455833"/>
<path d="M114.592 16.4022H116.701V24.6822H114.592V23.7536C114.094 24.5274 113.25 24.9143 112.138 24.9143C111.256 24.9143 110.489 24.6048 109.913 23.9857C109.338 23.3667 109.031 22.5542 109.031 21.4708V16.4022H111.141V21.2386C111.141 21.7803 111.294 22.2059 111.601 22.5155C111.908 22.825 112.291 22.9411 112.79 22.9411C113.327 22.9411 113.787 22.7863 114.094 22.4381C114.439 22.0899 114.592 21.5869 114.592 20.8904V16.4022Z" fill="#455833"/>
<path d="M134.113 13.0748V24.6823H131.85V17.1761L128.629 22.5543H128.36L125.139 17.2148V24.721H122.876V13.1135H125.215L128.514 18.569L131.773 13.1135H134.113V13.0748Z" fill="#455833"/>
<path d="M147.497 13.0748V24.6823H145.234V17.1761L142.013 22.5543H141.744L138.523 17.2148V24.721H136.222V13.1135H138.561L141.859 18.569L145.119 13.1135H147.497V13.0748Z" fill="#455833"/>
<path d="M155.052 24.9143C153.326 24.9143 151.907 24.3339 150.757 23.1732C149.645 22.0125 149.069 20.5809 149.069 18.8784C149.069 17.176 149.645 15.7444 150.757 14.5837C151.869 13.4229 153.326 12.8426 155.052 12.8426C156.088 12.8426 157.046 13.0747 157.928 13.5777C158.811 14.0807 159.501 14.7384 159.999 15.5897L158.044 16.7504C157.775 16.2474 157.353 15.8218 156.816 15.551C156.279 15.2414 155.704 15.1254 155.052 15.1254C153.94 15.1254 153.02 15.4736 152.368 16.17C151.677 16.8665 151.332 17.7951 151.332 18.9171C151.332 20.0392 151.677 20.9291 152.368 21.6642C153.058 22.3607 153.94 22.7089 155.052 22.7089C155.704 22.7089 156.318 22.5541 156.816 22.2833C157.353 21.9738 157.737 21.5869 158.005 21.0839L159.961 22.2446C159.463 23.0958 158.772 23.7536 157.928 24.2566C157.085 24.6435 156.126 24.9143 155.052 24.9143Z" fill="#455833"/>
<path d="M69.3379 40.507V32.6913H70.2583V40.507H69.3379Z" fill="#455833"/>
<path d="M76.0497 35.1677H76.9701V40.5079H76.0497V39.5791C75.5895 40.2757 74.9375 40.6239 74.0554 40.6239C73.3267 40.6239 72.6748 40.3531 72.1762 39.8113C71.6393 39.2695 71.4092 38.6117 71.4092 37.8378C71.4092 37.0638 71.6776 36.406 72.1762 35.8642C72.7131 35.3225 73.3267 35.0516 74.0554 35.0516C74.9375 35.0516 75.5895 35.3998 76.0497 36.0964V35.1677ZM74.1705 39.7726C74.7074 39.7726 75.1676 39.5791 75.5127 39.2308C75.8579 38.8826 76.0497 38.4182 76.0497 37.8765C76.0497 37.3347 75.8579 36.8703 75.5127 36.5221C75.1676 36.1738 74.7074 35.9803 74.1705 35.9803C73.6335 35.9803 73.2117 36.1738 72.8282 36.5221C72.483 36.8703 72.2913 37.3347 72.2913 37.8765C72.2913 38.4182 72.483 38.8826 72.8282 39.2308C73.2117 39.5791 73.6335 39.7726 74.1705 39.7726Z" fill="#455833"/>
<path d="M82.0707 35.1676H83.0679L80.9202 40.8553C80.6901 41.4743 80.3833 41.9386 79.9614 42.2482C79.5396 42.5577 79.0793 42.7125 78.5424 42.6738V41.7839C79.1944 41.8226 79.6546 41.4743 79.9614 40.7005L80.0765 40.507L77.7754 35.2063H78.7725L80.5367 39.3076L82.0707 35.1676Z" fill="#455833"/>
<path d="M84.2946 34.2003C84.1028 34.2003 83.9877 34.123 83.8343 34.0069C83.6809 33.8908 83.6426 33.736 83.6426 33.5813C83.6426 33.4265 83.7193 33.2718 83.8343 33.1557C83.9494 33.0396 84.1028 32.9622 84.2946 32.9622C84.448 32.9622 84.6014 33.0396 84.7164 33.1557C84.8315 33.2718 84.9082 33.4265 84.9082 33.5813C84.9082 33.736 84.8315 33.8908 84.7164 34.0069C84.6014 34.1617 84.4863 34.2003 84.2946 34.2003ZM83.8343 40.5071V35.1676H84.7548V40.5071H83.8343Z" fill="#455833"/>
<path d="M88.7817 35.0517C89.3953 35.0517 89.8939 35.2452 90.2774 35.6321C90.6609 36.019 90.8527 36.5607 90.8527 37.2571V40.5459H89.9322V37.3345C89.9322 36.9089 89.8172 36.5607 89.5871 36.3285C89.357 36.0964 89.0502 35.9803 88.6283 35.9803C88.1681 35.9803 87.7846 36.1351 87.5161 36.4059C87.2477 36.6767 87.0943 37.141 87.0943 37.7214V40.5459H86.1738V33.0784H87.0943V35.9803C87.4778 35.3225 88.0147 35.0517 88.7817 35.0517Z" fill="#455833"/>
<path d="M96.2984 37.4121C96.2217 36.9477 95.9915 36.5607 95.6464 36.2899C95.3012 36.019 94.8794 35.9029 94.3808 35.9029C93.6905 35.9029 93.1919 36.1738 92.8467 36.6768L92.0797 36.2125C92.5783 35.3998 93.3837 35.0129 94.4191 35.0129C95.2629 35.0129 95.9532 35.2838 96.4518 35.8255C96.9887 36.3673 97.2571 37.0251 97.2571 37.8377C97.2571 38.6504 96.9887 39.3082 96.4901 39.85C95.9915 40.3917 95.3012 40.6626 94.4958 40.6626C93.7288 40.6626 93.0768 40.3917 92.5783 39.85C92.0797 39.3082 91.8496 38.6504 91.8496 37.8764C91.8496 37.7217 91.8496 37.6056 91.888 37.4508H96.2984V37.4121ZM94.4575 39.7726C94.9561 39.7726 95.3779 39.6178 95.6847 39.3469C95.9916 39.0761 96.2217 38.6891 96.2984 38.2247H92.77C92.8467 38.7278 93.0385 39.1147 93.3453 39.3856C93.6905 39.6565 94.0356 39.7726 94.4575 39.7726Z" fill="#455833"/>
<path d="M107.037 40.1976L106.193 40.6619L105.426 39.8494C104.889 40.3523 104.161 40.6232 103.317 40.6232C102.588 40.6232 101.975 40.4297 101.515 40.0428C101.054 39.6559 100.824 39.1142 100.824 38.4565C100.824 37.9922 100.939 37.5666 101.169 37.2183C101.399 36.8314 101.745 36.5219 102.167 36.3284C101.86 35.9415 101.706 35.4772 101.706 34.9742C101.706 34.3552 101.936 33.8522 102.358 33.4653C102.78 33.0783 103.317 32.8849 103.892 32.8849C104.391 32.8849 104.851 33.001 105.235 33.2718C105.618 33.5426 105.925 33.9296 106.117 34.3939L105.273 34.8582C105.158 34.5486 105.004 34.2778 104.736 34.0843C104.506 33.8909 104.199 33.8135 103.892 33.8135C103.547 33.8135 103.279 33.9296 103.049 34.123C102.818 34.3165 102.703 34.5873 102.703 34.9355C102.703 35.1677 102.742 35.3998 102.857 35.5546C102.972 35.7481 103.125 35.9415 103.355 36.1737L105.388 38.3404C105.58 37.9535 105.695 37.5279 105.772 36.9862L106.615 37.4892C106.5 38.0695 106.347 38.6112 106.04 39.0755L107.037 40.1976ZM103.355 39.7333C103.931 39.7333 104.429 39.5785 104.813 39.2303L102.818 37.0636C102.473 37.2183 102.243 37.4118 102.09 37.6439C101.936 37.9148 101.86 38.1856 101.86 38.4565C101.86 38.8434 101.975 39.1529 102.243 39.3851C102.512 39.6172 102.857 39.7333 103.355 39.7333Z" fill="#455833"/>
<path d="M113.48 36.0579H112.061V38.9602C112.061 39.2311 112.099 39.4245 112.214 39.5019C112.329 39.618 112.483 39.6567 112.674 39.6567C112.904 39.6567 113.134 39.6567 113.441 39.6567V40.5081C112.636 40.6241 112.061 40.5468 111.677 40.3146C111.294 40.0824 111.102 39.618 111.102 38.9602V36.0579H110.066V35.1678H111.102V33.9682L112.022 33.6974V35.2065H113.441V36.0579H113.48Z" fill="#455833"/>
<path d="M115.052 34.2003C114.861 34.2003 114.746 34.123 114.592 34.0069C114.477 33.8908 114.4 33.736 114.4 33.5813C114.4 33.4265 114.477 33.2718 114.592 33.1557C114.707 33.0396 114.861 32.9622 115.052 32.9622C115.206 32.9622 115.359 33.0396 115.474 33.1557C115.589 33.2718 115.666 33.4265 115.666 33.5813C115.666 33.736 115.589 33.8908 115.474 34.0069C115.359 34.1617 115.206 34.2003 115.052 34.2003ZM114.592 40.5071V35.1676H115.513V40.5071H114.592Z" fill="#455833"/>
<path d="M121.381 40.5071H120.23L117.814 37.9922V40.5071H116.894V33.0396H117.814V37.5279L120.115 35.1677H121.304L118.773 37.76L121.381 40.5071Z" fill="#455833"/>
<path d="M122.722 34.2003C122.531 34.2003 122.415 34.123 122.262 34.0069C122.147 33.8908 122.07 33.736 122.07 33.5813C122.07 33.4265 122.147 33.2718 122.262 33.1557C122.377 33.0396 122.531 32.9622 122.722 32.9622C122.876 32.9622 123.029 33.0396 123.144 33.1557C123.259 33.2718 123.336 33.4265 123.336 33.5813C123.336 33.736 123.259 33.8908 123.144 34.0069C123.029 34.1617 122.876 34.2003 122.722 34.2003ZM122.262 40.5071V35.1676H123.182V40.5071H122.262Z" fill="#455833"/>
<path d="M127.209 35.0516C127.823 35.0516 128.322 35.2451 128.705 35.632C129.089 36.019 129.28 36.5607 129.28 37.2573V40.5465H128.36V37.3347C128.36 36.909 128.245 36.5607 128.015 36.3286C127.785 36.0964 127.478 35.9803 127.056 35.9803C126.596 35.9803 126.212 36.1351 125.944 36.406C125.675 36.6768 125.522 37.1412 125.522 37.7217V40.5465H124.602V35.2064H125.522V35.9803C125.867 35.3225 126.442 35.0516 127.209 35.0516Z" fill="#455833"/>
<path d="M133.423 36.0579H132.004V38.9602C132.004 39.2311 132.042 39.4245 132.157 39.5019C132.272 39.618 132.426 39.6567 132.618 39.6567C132.848 39.6567 133.078 39.6567 133.385 39.6567V40.5081C132.579 40.6241 132.004 40.5468 131.621 40.3146C131.237 40.0824 131.045 39.618 131.045 38.9602V36.0579H130.01V35.1678H131.045V33.9682L131.966 33.6974V35.2065H133.385V36.0579H133.423Z" fill="#455833"/>
<path d="M134.995 34.2003C134.803 34.2003 134.688 34.123 134.535 34.0069C134.419 33.8908 134.343 33.736 134.343 33.5813C134.343 33.4265 134.419 33.2718 134.535 33.1557C134.65 33.0396 134.803 32.9622 134.995 32.9622C135.148 32.9622 135.302 33.0396 135.417 33.1557C135.532 33.2718 135.608 33.4265 135.608 33.5813C135.608 33.736 135.532 33.8908 135.417 34.0069C135.302 34.1617 135.148 34.2003 134.995 34.2003ZM134.496 40.5071V35.1676H135.417V40.5071H134.496Z" fill="#455833"/>
</svg>
